<mxfile host="app.diagrams.net" modified="2020-08-23T17:38:49.190Z" agent="5.0 (Windows NT 10.0; Win64; x64) AppleWebKit/537.36 (KHTML, like Gecko) Chrome/84.0.4147.135 Safari/537.36" etag="C_xSrTepnbJkeKG6zlGl" version="13.6.4" type="github">
  <diagram id="C5RBs43oDa-KdzZeNtuy" name="Page-1">
    <mxGraphModel dx="1209" dy="675" grid="1" gridSize="10" guides="1" tooltips="1" connect="1" arrows="1" fold="1" page="1" pageScale="1" pageWidth="827" pageHeight="1169" math="0" shadow="0">
      <root>
        <mxCell id="WIyWlLk6GJQsqaUBKTNV-0" />
        <mxCell id="WIyWlLk6GJQsqaUBKTNV-1" parent="WIyWlLk6GJQsqaUBKTNV-0" />
        <mxCell id="u7AY18sbsaWn1Qj2UqQQ-2" value="" style="edgeStyle=orthogonalEdgeStyle;rounded=0;orthogonalLoop=1;jettySize=auto;html=1;" edge="1" parent="WIyWlLk6GJQsqaUBKTNV-1" target="u7AY18sbsaWn1Qj2UqQQ-0">
          <mxGeometry relative="1" as="geometry">
            <mxPoint x="650" y="230" as="sourcePoint" />
          </mxGeometry>
        </mxCell>
        <mxCell id="u7AY18sbsaWn1Qj2UqQQ-12" value="" style="edgeStyle=orthogonalEdgeStyle;rounded=0;orthogonalLoop=1;jettySize=auto;html=1;endArrow=diamond;endFill=1;strokeColor=#000000;" edge="1" parent="WIyWlLk6GJQsqaUBKTNV-1" source="u7AY18sbsaWn1Qj2UqQQ-10" target="u7AY18sbsaWn1Qj2UqQQ-11">
          <mxGeometry relative="1" as="geometry" />
        </mxCell>
        <mxCell id="u7AY18sbsaWn1Qj2UqQQ-10" value="&#xa;&#xa;&lt;span style=&quot;color: rgb(0, 0, 0); font-family: helvetica; font-style: normal; font-weight: 400; letter-spacing: normal; text-align: center; text-indent: 0px; text-transform: none; word-spacing: 0px; font-size: 13.0667px; background-color: rgb(255, 255, 255);&quot;&gt;Tələbə əlavə etmək üçün 1&lt;br&gt;&lt;/span&gt;&lt;span style=&quot;color: rgb(0, 0, 0); font-family: helvetica; font-style: normal; font-weight: 400; letter-spacing: normal; text-align: center; text-indent: 0px; text-transform: none; word-spacing: 0px; font-size: 13.0667px; background-color: rgb(255, 255, 255);&quot;&gt;Tələbə silmək üçün 2&lt;br&gt;&lt;/span&gt;&lt;span style=&quot;color: rgb(0, 0, 0); font-family: helvetica; font-style: normal; font-weight: 400; letter-spacing: normal; text-align: center; text-indent: 0px; text-transform: none; word-spacing: 0px; font-size: 13.0667px; background-color: rgb(255, 255, 255);&quot;&gt;Tələbə məlumatlarını dəyişdirmək üçün 3&lt;br&gt;&lt;/span&gt;&lt;span style=&quot;color: rgb(0, 0, 0); font-family: helvetica; font-style: normal; font-weight: 400; letter-spacing: normal; text-align: center; text-indent: 0px; text-transform: none; word-spacing: 0px; font-size: 13.0667px; background-color: rgb(255, 255, 255);&quot;&gt;Tələbə məlumatlarına baxmaq üçün 4&lt;br&gt;&lt;/span&gt;&lt;span style=&quot;color: rgb(0, 0, 0); font-family: helvetica; font-style: normal; font-weight: 400; letter-spacing: normal; text-align: center; text-indent: 0px; text-transform: none; word-spacing: 0px; font-size: 13.0667px; background-color: rgb(255, 255, 255);&quot;&gt;Bütün tələbələrə baxmaq üçün 5&lt;/span&gt;&#xa;&#xa;" style="ellipse;whiteSpace=wrap;html=1;" vertex="1" parent="WIyWlLk6GJQsqaUBKTNV-1">
          <mxGeometry x="110" y="10" width="290" height="140" as="geometry" />
        </mxCell>
        <mxCell id="u7AY18sbsaWn1Qj2UqQQ-14" value="" style="edgeStyle=orthogonalEdgeStyle;rounded=0;orthogonalLoop=1;jettySize=auto;html=1;endArrow=diamond;endFill=1;strokeColor=#000000;" edge="1" parent="WIyWlLk6GJQsqaUBKTNV-1" source="u7AY18sbsaWn1Qj2UqQQ-30" target="u7AY18sbsaWn1Qj2UqQQ-13">
          <mxGeometry relative="1" as="geometry" />
        </mxCell>
        <mxCell id="u7AY18sbsaWn1Qj2UqQQ-20" value="" style="edgeStyle=orthogonalEdgeStyle;rounded=0;orthogonalLoop=1;jettySize=auto;html=1;endArrow=diamond;endFill=1;strokeColor=#000000;" edge="1" parent="WIyWlLk6GJQsqaUBKTNV-1" source="u7AY18sbsaWn1Qj2UqQQ-11" target="u7AY18sbsaWn1Qj2UqQQ-19">
          <mxGeometry relative="1" as="geometry" />
        </mxCell>
        <mxCell id="u7AY18sbsaWn1Qj2UqQQ-11" value="1" style="rhombus;whiteSpace=wrap;html=1;" vertex="1" parent="WIyWlLk6GJQsqaUBKTNV-1">
          <mxGeometry x="215" y="260" width="80" height="80" as="geometry" />
        </mxCell>
        <mxCell id="u7AY18sbsaWn1Qj2UqQQ-18" value="" style="edgeStyle=orthogonalEdgeStyle;rounded=0;orthogonalLoop=1;jettySize=auto;html=1;endArrow=diamond;endFill=1;strokeColor=#000000;" edge="1" parent="WIyWlLk6GJQsqaUBKTNV-1" source="u7AY18sbsaWn1Qj2UqQQ-13" target="u7AY18sbsaWn1Qj2UqQQ-17">
          <mxGeometry relative="1" as="geometry" />
        </mxCell>
        <mxCell id="u7AY18sbsaWn1Qj2UqQQ-13" value="İstifadəçidən məlumatları götür" style="whiteSpace=wrap;html=1;" vertex="1" parent="WIyWlLk6GJQsqaUBKTNV-1">
          <mxGeometry x="530" y="270" width="120" height="60" as="geometry" />
        </mxCell>
        <mxCell id="u7AY18sbsaWn1Qj2UqQQ-16" value="Yes" style="text;html=1;strokeColor=none;fillColor=none;align=center;verticalAlign=middle;whiteSpace=wrap;rounded=0;" vertex="1" parent="WIyWlLk6GJQsqaUBKTNV-1">
          <mxGeometry x="310" y="270" width="40" height="20" as="geometry" />
        </mxCell>
        <mxCell id="u7AY18sbsaWn1Qj2UqQQ-28" value="" style="edgeStyle=orthogonalEdgeStyle;rounded=0;orthogonalLoop=1;jettySize=auto;html=1;endArrow=diamond;endFill=1;strokeColor=#000000;" edge="1" parent="WIyWlLk6GJQsqaUBKTNV-1" source="u7AY18sbsaWn1Qj2UqQQ-17" target="u7AY18sbsaWn1Qj2UqQQ-27">
          <mxGeometry relative="1" as="geometry" />
        </mxCell>
        <mxCell id="u7AY18sbsaWn1Qj2UqQQ-17" value="&#xa;&#xa;&lt;span style=&quot;color: rgb(0, 0, 0); font-family: helvetica; font-size: 12px; font-style: normal; font-weight: 400; letter-spacing: normal; text-align: center; text-indent: 0px; text-transform: none; word-spacing: 0px; background-color: rgb(248, 249, 250); display: inline; float: none;&quot;&gt;Melumatların düzgünlüyünü yoxla&lt;/span&gt;&#xa;&#xa;" style="whiteSpace=wrap;html=1;" vertex="1" parent="WIyWlLk6GJQsqaUBKTNV-1">
          <mxGeometry x="700" y="270" width="120" height="60" as="geometry" />
        </mxCell>
        <mxCell id="u7AY18sbsaWn1Qj2UqQQ-22" value="" style="edgeStyle=orthogonalEdgeStyle;rounded=0;orthogonalLoop=1;jettySize=auto;html=1;endArrow=diamond;endFill=1;strokeColor=#000000;" edge="1" parent="WIyWlLk6GJQsqaUBKTNV-1" source="u7AY18sbsaWn1Qj2UqQQ-19" target="u7AY18sbsaWn1Qj2UqQQ-21">
          <mxGeometry relative="1" as="geometry" />
        </mxCell>
        <mxCell id="u7AY18sbsaWn1Qj2UqQQ-34" value="" style="edgeStyle=orthogonalEdgeStyle;rounded=0;orthogonalLoop=1;jettySize=auto;html=1;endArrow=diamond;endFill=1;strokeColor=#000000;" edge="1" parent="WIyWlLk6GJQsqaUBKTNV-1" source="u7AY18sbsaWn1Qj2UqQQ-19" target="u7AY18sbsaWn1Qj2UqQQ-33">
          <mxGeometry relative="1" as="geometry" />
        </mxCell>
        <mxCell id="u7AY18sbsaWn1Qj2UqQQ-19" value="2" style="rhombus;whiteSpace=wrap;html=1;" vertex="1" parent="WIyWlLk6GJQsqaUBKTNV-1">
          <mxGeometry x="215" y="420" width="80" height="80" as="geometry" />
        </mxCell>
        <mxCell id="u7AY18sbsaWn1Qj2UqQQ-24" value="" style="edgeStyle=orthogonalEdgeStyle;rounded=0;orthogonalLoop=1;jettySize=auto;html=1;endArrow=diamond;endFill=1;strokeColor=#000000;" edge="1" parent="WIyWlLk6GJQsqaUBKTNV-1" source="u7AY18sbsaWn1Qj2UqQQ-21" target="u7AY18sbsaWn1Qj2UqQQ-23">
          <mxGeometry relative="1" as="geometry" />
        </mxCell>
        <mxCell id="u7AY18sbsaWn1Qj2UqQQ-21" value="3" style="rhombus;whiteSpace=wrap;html=1;" vertex="1" parent="WIyWlLk6GJQsqaUBKTNV-1">
          <mxGeometry x="215" y="580" width="80" height="80" as="geometry" />
        </mxCell>
        <mxCell id="u7AY18sbsaWn1Qj2UqQQ-26" value="" style="edgeStyle=orthogonalEdgeStyle;rounded=0;orthogonalLoop=1;jettySize=auto;html=1;endArrow=diamond;endFill=1;strokeColor=#000000;" edge="1" parent="WIyWlLk6GJQsqaUBKTNV-1" source="u7AY18sbsaWn1Qj2UqQQ-23" target="u7AY18sbsaWn1Qj2UqQQ-25">
          <mxGeometry relative="1" as="geometry" />
        </mxCell>
        <mxCell id="u7AY18sbsaWn1Qj2UqQQ-23" value="4" style="rhombus;whiteSpace=wrap;html=1;" vertex="1" parent="WIyWlLk6GJQsqaUBKTNV-1">
          <mxGeometry x="215" y="740" width="80" height="80" as="geometry" />
        </mxCell>
        <mxCell id="u7AY18sbsaWn1Qj2UqQQ-25" value="5" style="rhombus;whiteSpace=wrap;html=1;" vertex="1" parent="WIyWlLk6GJQsqaUBKTNV-1">
          <mxGeometry x="215" y="900" width="80" height="80" as="geometry" />
        </mxCell>
        <mxCell id="u7AY18sbsaWn1Qj2UqQQ-27" value="Məlumatları listə əlavə et" style="whiteSpace=wrap;html=1;" vertex="1" parent="WIyWlLk6GJQsqaUBKTNV-1">
          <mxGeometry x="860" y="270" width="120" height="60" as="geometry" />
        </mxCell>
        <mxCell id="u7AY18sbsaWn1Qj2UqQQ-32" style="edgeStyle=orthogonalEdgeStyle;rounded=0;orthogonalLoop=1;jettySize=auto;html=1;entryX=1;entryY=0.5;entryDx=0;entryDy=0;endArrow=diamond;endFill=1;strokeColor=#000000;" edge="1" parent="WIyWlLk6GJQsqaUBKTNV-1" source="u7AY18sbsaWn1Qj2UqQQ-30" target="u7AY18sbsaWn1Qj2UqQQ-10">
          <mxGeometry relative="1" as="geometry" />
        </mxCell>
        <mxCell id="u7AY18sbsaWn1Qj2UqQQ-30" value="Tələbələrin sayını yoxla" style="whiteSpace=wrap;html=1;" vertex="1" parent="WIyWlLk6GJQsqaUBKTNV-1">
          <mxGeometry x="360" y="270" width="120" height="60" as="geometry" />
        </mxCell>
        <mxCell id="u7AY18sbsaWn1Qj2UqQQ-31" value="" style="edgeStyle=orthogonalEdgeStyle;rounded=0;orthogonalLoop=1;jettySize=auto;html=1;endArrow=diamond;endFill=1;strokeColor=#000000;" edge="1" parent="WIyWlLk6GJQsqaUBKTNV-1" source="u7AY18sbsaWn1Qj2UqQQ-11" target="u7AY18sbsaWn1Qj2UqQQ-30">
          <mxGeometry relative="1" as="geometry">
            <mxPoint x="295" y="300" as="sourcePoint" />
            <mxPoint x="530" y="300" as="targetPoint" />
          </mxGeometry>
        </mxCell>
        <mxCell id="u7AY18sbsaWn1Qj2UqQQ-36" value="" style="edgeStyle=orthogonalEdgeStyle;rounded=0;orthogonalLoop=1;jettySize=auto;html=1;endArrow=diamond;endFill=1;strokeColor=#000000;" edge="1" parent="WIyWlLk6GJQsqaUBKTNV-1" source="u7AY18sbsaWn1Qj2UqQQ-33" target="u7AY18sbsaWn1Qj2UqQQ-35">
          <mxGeometry relative="1" as="geometry" />
        </mxCell>
        <mxCell id="u7AY18sbsaWn1Qj2UqQQ-33" value="Tələbə kodunu götür" style="whiteSpace=wrap;html=1;" vertex="1" parent="WIyWlLk6GJQsqaUBKTNV-1">
          <mxGeometry x="360" y="430" width="120" height="60" as="geometry" />
        </mxCell>
        <mxCell id="u7AY18sbsaWn1Qj2UqQQ-38" value="" style="edgeStyle=orthogonalEdgeStyle;rounded=0;orthogonalLoop=1;jettySize=auto;html=1;endArrow=diamond;endFill=1;strokeColor=#000000;" edge="1" parent="WIyWlLk6GJQsqaUBKTNV-1" source="u7AY18sbsaWn1Qj2UqQQ-35" target="u7AY18sbsaWn1Qj2UqQQ-37">
          <mxGeometry relative="1" as="geometry" />
        </mxCell>
        <mxCell id="u7AY18sbsaWn1Qj2UqQQ-40" style="edgeStyle=orthogonalEdgeStyle;rounded=0;orthogonalLoop=1;jettySize=auto;html=1;entryX=1;entryY=0.357;entryDx=0;entryDy=0;entryPerimeter=0;endArrow=diamond;endFill=1;strokeColor=#000000;" edge="1" parent="WIyWlLk6GJQsqaUBKTNV-1" source="u7AY18sbsaWn1Qj2UqQQ-35" target="u7AY18sbsaWn1Qj2UqQQ-10">
          <mxGeometry relative="1" as="geometry">
            <Array as="points">
              <mxPoint x="620" y="370" />
              <mxPoint x="1020" y="370" />
              <mxPoint x="1020" y="60" />
            </Array>
          </mxGeometry>
        </mxCell>
        <mxCell id="u7AY18sbsaWn1Qj2UqQQ-35" value="Məlumatların doğruluğunu yoxla" style="whiteSpace=wrap;html=1;" vertex="1" parent="WIyWlLk6GJQsqaUBKTNV-1">
          <mxGeometry x="560" y="430" width="120" height="60" as="geometry" />
        </mxCell>
        <mxCell id="u7AY18sbsaWn1Qj2UqQQ-37" value="Tələbəni sil" style="whiteSpace=wrap;html=1;" vertex="1" parent="WIyWlLk6GJQsqaUBKTNV-1">
          <mxGeometry x="760" y="430" width="120" height="60" as="geometry" />
        </mxCell>
        <mxCell id="u7AY18sbsaWn1Qj2UqQQ-39" value="No" style="text;html=1;strokeColor=none;fillColor=none;align=center;verticalAlign=middle;whiteSpace=wrap;rounded=0;" vertex="1" parent="WIyWlLk6GJQsqaUBKTNV-1">
          <mxGeometry x="440" y="170" width="40" height="20" as="geometry" />
        </mxCell>
        <mxCell id="u7AY18sbsaWn1Qj2UqQQ-41" value="No" style="text;html=1;strokeColor=none;fillColor=none;align=center;verticalAlign=middle;whiteSpace=wrap;rounded=0;" vertex="1" parent="WIyWlLk6GJQsqaUBKTNV-1">
          <mxGeometry x="570" y="390" width="40" height="20" as="geometry" />
        </mxCell>
        <mxCell id="u7AY18sbsaWn1Qj2UqQQ-42" value="Yes" style="text;html=1;strokeColor=none;fillColor=none;align=center;verticalAlign=middle;whiteSpace=wrap;rounded=0;" vertex="1" parent="WIyWlLk6GJQsqaUBKTNV-1">
          <mxGeometry x="300" y="420" width="40" height="20" as="geometry" />
        </mxCell>
      </root>
    </mxGraphModel>
  </diagram>
</mxfile>
